<?xml version="1.0" encoding="UTF-8"?>
<!DOCTYPE svg PUBLIC "-//W3C//DTD SVG 1.1//EN" "http://www.w3.org/Graphics/SVG/1.1/DTD/svg11.dtd">
<!-- Creator: CorelDRAW 2019 (64-Bit) -->
<svg xmlns="http://www.w3.org/2000/svg" xml:space="preserve" width="2.65747in" height="1.05311in" version="1.1" style="shape-rendering:geometricPrecision; text-rendering:geometricPrecision; image-rendering:optimizeQuality; fill-rule:evenodd; clip-rule:evenodd"
viewBox="0 0 486.24 192.69"
 xmlns:xlink="http://www.w3.org/1999/xlink"
 xmlns:xodm="http://www.corel.com/coreldraw/odm/2003">
 <defs>
  <style type="text/css">
   <![CDATA[
    .fil1 {fill:#FEFEFE}
    .fil0 {fill:#FEFEFE;fill-rule:nonzero}
    .fil2 {fill:#FEFEFE;fill-rule:nonzero}
   ]]>
  </style>
 </defs>
 <g id="Layer_x0020_1">
  <metadata id="CorelCorpID_0Corel-Layer"/>
  <path class="fil0" d="M194.92 77.06c0.96,0.36 1.03,0.79 1.03,1.91l0 7.62c0,4.55 1.51,6.68 6.15,6.68 2.04,0 3.68,-0.71 4.66,-1.88 1.03,-1.25 1.16,-2.62 1.16,-4.5l0 -7.83c0,-1.19 0.1,-1.8 1.01,-2.01l0 -3.05 -5.67 0 0 3.05c0.76,0.2 0.98,0.69 0.98,1.75l0 7.93c0,1.8 -0.66,2.72 -2.04,2.72 -1.49,0 -1.97,-0.97 -1.97,-2.79l0 -7.32c0,-1.27 0.05,-1.98 0.96,-2.29l0 -3.05 -6.28 0 0 3.05zm16.44 15.83l5.88 0 0 -3.18c-0.83,-0.13 -0.98,-0.66 -0.98,-1.91l0 -5.64 4.72 10.72 3.93 0 0 -13.72c0,-1.22 0.02,-1.83 1.01,-2.11l0 -3.05 -5.95 0 0 3.05c0.83,0.15 1.01,0.71 1.01,1.91l0 5.67 -4.72 -10.62 -4.89 0 0 3.05c0.81,0.18 0.96,0.66 0.96,1.63l0 9.12c0,1.22 -0.1,1.8 -0.96,1.91l0 3.18zm22.29 -5.13l0 -8.74c0,-1.19 0.03,-1.75 0.93,-1.96l0 -3.05 -6.23 0 0 3.05c0.91,0.2 0.96,0.74 0.96,1.96l0 8.74c0,1.22 -0.05,1.75 -0.96,1.96l0 3.18 6.23 0 0 -3.18c-0.91,-0.2 -0.93,-0.74 -0.93,-1.96zm6.76 5.13l6.46 0 2.75 -14.18c0.18,-0.86 0.45,-1.4 1.06,-1.65l0 -3.05 -5.75 0 0 3.05c0.73,0.13 0.98,0.43 0.98,1.04 0,0.18 0,0.43 -0.05,0.71l-1.87 10.5 -2.04 -10.62c-0.05,-0.2 -0.08,-0.38 -0.08,-0.61 0,-0.58 0.28,-0.86 0.96,-1.02l0 -3.05 -6.48 0 0 3.05c0.81,0.28 0.98,0.79 1.16,1.68l2.9 14.16zm11.8 0l13.19 0 0 -6.33 -4.06 0 0 0.69c0,1.47 -0.4,2.03 -1.94,2.03l-1.89 0 0 -4.55 5.12 0 0 -3.18 -5.12 0 0 -3.94 1.59 0c1.64,0 2.24,0.46 2.24,1.96 0,0.08 0,0.13 0,0.2l4.06 0 0 -5.77 -13.19 0 0 3.05c0.91,0.2 0.96,0.74 0.96,1.96l0 8.74c0,1.22 -0.05,1.75 -0.96,1.96l0 3.18zm20.83 -5.13l0 -2.39 1.34 0c1.84,0 2.24,0.56 2.24,2.34l0 2.41c0,1.04 0,1.96 0.38,2.77l4.64 0 0 -3.18c-0.71,-0.15 -0.81,-0.74 -0.81,-1.91l0 -1.02c0,-1.75 -0.53,-2.54 -2.4,-2.97 1.87,-0.51 2.85,-2.03 2.85,-4.37 0,-3.91 -2.02,-5.44 -6.18,-5.44l-7.36 0 0 3.05c0.91,0.2 0.96,0.74 0.96,1.96l0 8.74c0,1.22 -0.05,1.75 -0.96,1.96l0 3.18 6.23 0 0 -3.18c-0.91,-0.2 -0.93,-0.74 -0.93,-1.96zm0 -5.72l0 -4.5 1.74 0c1.54,0 2.24,0.74 2.24,2.29 0,1.58 -0.73,2.21 -2.29,2.21l-1.69 0zm11.12 9.05c1.74,1.42 3.96,2.19 6.4,2.19 3.93,0 6.3,-2.39 6.3,-5.92 0,-3.33 -1.56,-4.57 -5.04,-5.77 -2.29,-0.79 -3.48,-1.27 -3.48,-2.52 0,-1.02 0.76,-1.75 2.04,-1.75 1.31,0 2.02,0.86 2.02,2.49 0,0.1 0,0.23 0,0.33l4.13 0 0 -4.45c-1.87,-1.4 -3.88,-2.06 -6.13,-2.06 -3.88,0 -6.33,2.08 -6.33,5.49 0,1.73 0.55,2.9 1.82,3.89 1.18,0.91 2.6,1.3 4.03,1.85 1.74,0.66 2.6,1.32 2.6,2.57 0,1.19 -0.81,1.98 -1.97,1.98 -1.51,0 -2.19,-0.86 -2.19,-2.67 0,-0.13 0,-0.25 0,-0.38l-4.21 0 0 4.73zm20.47 -3.33l0 -8.74c0,-1.19 0.02,-1.75 0.93,-1.96l0 -3.05 -6.23 0 0 3.05c0.91,0.2 0.96,0.74 0.96,1.96l0 8.74c0,1.22 -0.05,1.75 -0.96,1.96l0 3.18 6.23 0 0 -3.18c-0.91,-0.2 -0.93,-0.74 -0.93,-1.96zm8.19 -10.16l0 10.16c0,1.22 -0.05,1.75 -0.96,1.96l0 3.18 6.23 0 0 -3.18c-0.91,-0.2 -0.93,-0.74 -0.93,-1.96l0 -10.16c1.26,0.03 1.74,0.66 1.74,2.16l0 1.91 3.45 0 0 -7.65 -14.72 0 0 7.65 3.48 0 0 -1.91c0,-1.5 0.48,-2.13 1.71,-2.16zm14.2 15.3l6.25 0 0 -3.18c-0.86,-0.13 -0.96,-0.66 -0.96,-1.83l0 -2.47 3.61 -7.27c0.3,-0.58 0.6,-0.97 1.01,-1.09l0 -3.05 -4.82 0 0 2.31c0,0.76 -0.08,1.45 -0.4,2.11l-1.24 2.52 -1.26 -2.62c-0.33,-0.71 -0.35,-1.35 -0.35,-2.01 0,-0.08 0,-0.18 0,-0.25l0 -2.06 -5.5 0 0 3.05c0.4,0.1 0.71,0.48 1.01,1.12l3.63 7.47 0 2.29c0,1.12 -0.25,1.63 -0.98,1.78l0 3.18z"/>
  <path class="fil0" d="M203.32 49.73l0 -1.21 3.63 0c8.38,0 10.46,-3.33 10.46,-11.84 0,-7.39 -2.94,-10.32 -10.46,-10.32l-12.7 0 0 5.18c1.56,0.35 1.64,1.25 1.64,3.33l0 14.86c0,2.07 -0.09,2.98 -1.64,3.33l0 5.4 10.67 0 0 -5.4c-1.56,-0.35 -1.6,-1.25 -1.6,-3.33zm0 -8.12l0 -8.42 2.81 0c2.94,0 3.93,0.91 3.93,4.32 0,3.46 -1.08,4.1 -3.97,4.1l-2.76 0zm23.93 3.07l2.16 -12.27 2.2 12.27 -4.36 0zm-9.29 13.78l9.85 0 0 -5.4c-1.21,-0.04 -1.73,-0.56 -1.73,-1.6 0,-0.39 0.04,-0.69 0.09,-0.99l0.26 -1.21 6.22 0 0.26 1.34c0.09,0.56 0.09,0.91 0.09,0.95 0,0.82 -0.56,1.43 -1.6,1.51l0 5.4 10.93 0 0 -5.4c-1.17,-0.35 -1.51,-1.21 -1.86,-2.85l-5.01 -23.85 -11.02 0 -4.54 23.33c-0.39,1.94 -0.69,2.98 -1.94,3.37l0 5.4zm26.96 0l10.07 0 0 -5.4c-1.43,-0.22 -1.68,-1.12 -1.68,-3.24l0 -9.59 8.08 18.23 6.74 0 0 -23.33c0,-2.07 0.04,-3.11 1.73,-3.59l0 -5.18 -10.2 0 0 5.18c1.43,0.26 1.73,1.21 1.73,3.24l0 9.63 -8.08 -18.06 -8.38 0 0 5.18c1.38,0.3 1.64,1.12 1.64,2.77l0 15.51c0,2.07 -0.17,3.07 -1.64,3.24l0 5.4zm29.29 -9.55l11.58 0 0 -5.18 -11.58 0 0 5.18zm24.32 -4.23l2.16 -12.27 2.2 12.27 -4.36 0zm-9.29 13.78l9.85 0 0 -5.4c-1.21,-0.04 -1.73,-0.56 -1.73,-1.6 0,-0.39 0.04,-0.69 0.09,-0.99l0.26 -1.21 6.22 0 0.26 1.34c0.09,0.56 0.09,0.91 0.09,0.95 0,0.82 -0.56,1.43 -1.6,1.51l0 5.4 10.93 0 0 -5.4c-1.17,-0.35 -1.51,-1.21 -1.86,-2.85l-5.01 -23.85 -11.02 0 -4.54 23.33c-0.39,1.94 -0.69,2.98 -1.94,3.37l0 5.4zm33.31 -26.01l0 17.28c0,2.07 -0.09,2.98 -1.64,3.33l0 5.4 10.67 0 0 -5.4c-1.56,-0.35 -1.6,-1.25 -1.6,-3.33l0 -17.28c2.16,0.04 2.98,1.12 2.98,3.67l0 3.24 5.92 0 0 -13 -25.23 0 0 13 5.96 0 0 -3.24c0,-2.55 0.82,-3.63 2.94,-3.67zm41.43 26.01l0 -14.56 -6.44 0 0 3.54c0,3.41 -0.3,4.93 -3.76,4.93l-2.42 0 0 -17.5c0,-2.03 0.04,-2.98 1.6,-3.33l0 -5.18 -10.67 0 0 5.18c1.56,0.35 1.64,1.25 1.64,3.33l0 14.86c0,2.07 -0.09,2.98 -1.64,3.33l0 5.4 21.69 0zm11.32 -13.78l2.16 -12.27 2.2 12.27 -4.36 0zm-9.29 13.78l9.85 0 0 -5.4c-1.21,-0.04 -1.73,-0.56 -1.73,-1.6 0,-0.39 0.04,-0.69 0.09,-0.99l0.26 -1.21 6.22 0 0.26 1.34c0.09,0.56 0.09,0.91 0.09,0.95 0,0.82 -0.56,1.43 -1.6,1.51l0 5.4 10.93 0 0 -5.4c-1.17,-0.35 -1.51,-1.21 -1.86,-2.85l-5.01 -23.85 -11.02 0 -4.54 23.33c-0.39,1.94 -0.69,2.98 -1.94,3.37l0 5.4zm26.96 0l10.07 0 0 -5.4c-1.43,-0.22 -1.68,-1.12 -1.68,-3.24l0 -9.59 8.08 18.23 6.74 0 0 -23.33c0,-2.07 0.04,-3.11 1.73,-3.59l0 -5.18 -10.2 0 0 5.18c1.43,0.26 1.73,1.21 1.73,3.24l0 9.63 -8.08 -18.06 -8.38 0 0 5.18c1.38,0.3 1.64,1.12 1.64,2.77l0 15.51c0,2.07 -0.17,3.07 -1.64,3.24l0 5.4zm36.94 -26.01l0 17.28c0,2.07 -0.09,2.98 -1.64,3.33l0 5.4 10.67 0 0 -5.4c-1.56,-0.35 -1.6,-1.25 -1.6,-3.33l0 -17.28c2.16,0.04 2.98,1.12 2.98,3.67l0 3.24 5.92 0 0 -13 -25.23 0 0 13 5.96 0 0 -3.24c0,-2.55 0.82,-3.63 2.94,-3.67zm28.95 17.28l0 -14.86c0,-2.03 0.04,-2.98 1.6,-3.33l0 -5.18 -10.67 0 0 5.18c1.56,0.35 1.64,1.25 1.64,3.33l0 14.86c0,2.07 -0.09,2.98 -1.64,3.33l0 5.4 10.67 0 0 -5.4c-1.56,-0.35 -1.6,-1.25 -1.6,-3.33zm6.22 -12.57l0 10.5c0,3.63 0.09,6.26 1.73,8.34 1.73,2.2 4.71,3.11 9.07,3.11 3.59,0 7.26,-0.86 10.37,-2.46l0 -11.02 -7 0 0 2.29c0,3.15 -0.82,4.71 -3.37,4.71 -2.55,0 -3.41,-1.56 -3.41,-4.71l0 -11.02c0,-3.15 0.86,-4.71 3.41,-4.71 2.29,0 3.37,1.43 3.37,4.32 0,0.22 0,0.43 0,0.65l7 0 0 -9.07c-3.33,-1.56 -6.78,-2.38 -10.37,-2.38 -4.84,0 -7.91,1.08 -9.55,3.8 -1.21,1.99 -1.25,4.45 -1.25,7.65z"/>
  <path class="fil1" d="M86.75 55.61c0.16,2.4 0.36,4.77 0.61,7.09 6.86,0.26 13.72,4.84 20.59,4.84 7.06,0 14.13,-4.85 21.19,-4.85 7.06,0 14.13,4.85 21.19,4.85 7.06,0 14.13,-4.85 21.19,-4.85l0 0.11c0.25,-2.37 0.45,-4.77 0.62,-7.21l-42.91 -0 0 0 -85.38 -0 0 0 -42.48 -0c0.16,2.46 0.37,4.88 0.62,7.26l0 -0.16c7.06,0 14.13,4.85 21.19,4.85 7.06,0 14.13,-4.85 21.19,-4.85 7.06,0 14.13,4.85 21.19,4.85 6.86,0 13.72,-4.57 20.58,-4.84 0.24,-2.33 0.45,-4.69 0.61,-7.09zm82.26 -54.75c24.47,142.19 -82.01,190.84 -82.37,190.92 0,0 -21.38,-9.82 -42.8,-33.41 1.98,-2.18 3.96,-4.49 5.94,-6.91 -1.8,-0.47 -3.61,-0.79 -5.41,-0.79 -2.09,0 -4.18,0.42 -6.27,1.02 -2.02,-2.47 -4.02,-5.07 -5.98,-7.81 4.08,-1.37 8.17,-2.99 12.25,-2.99 3.81,0 7.62,1.41 11.43,2.71l0 0c1.87,-2.6 3.71,-5.31 5.5,-8.15 -5.64,-1.24 -11.29,-4.34 -16.93,-4.34 -5.93,0 -11.86,3.42 -17.79,4.51 -2.01,-3.21 -3.97,-6.56 -5.84,-10.08l0.27 0.5c0.72,0.09 1.45,0.14 2.17,0.14 7.06,0 14.13,-4.85 21.19,-4.85 7.06,0 14.13,4.85 21.19,4.85 0.41,0 0.81,-0.02 1.22,-0.05 1.88,-3.46 3.69,-7.08 5.38,-10.85 -2.2,0.65 -4.4,1.12 -6.6,1.12 -7.06,0 -14.13,-4.85 -21.19,-4.85 -7.07,0 -14.13,4.85 -21.19,4.85 -2.52,0 -5.04,-0.62 -7.56,-1.41 1.59,3.6 3.28,7.06 5.04,10.38 -15.69,-29.55 -25.52,-70.22 -16.19,-124.53l164.55 0.01zm-80.36 71.71c0.59,3.68 1.28,7.26 2.06,10.75l-0.15 -0.67c5.79,1.17 11.58,4.43 17.38,4.43 7.06,0 14.13,-4.85 21.19,-4.85 7.06,0 14.13,4.85 21.19,4.85 6.02,0 12.04,-3.52 18.06,-4.56 0.71,-3.3 1.34,-6.69 1.89,-10.16l-0.02 0.15c-6.64,0.51 -13.28,4.8 -19.93,4.8 -7.06,0 -14.13,-4.85 -21.19,-4.85 -7.06,0 -14.13,4.85 -21.19,4.85 -6.43,0 -12.86,-4.02 -19.29,-4.74zm4.55 20.52c1.08,3.76 2.27,7.4 3.55,10.92 3.73,1.28 7.46,2.63 11.19,2.63 7.06,0 14.13,-4.85 21.19,-4.85 7.06,0 14.13,4.85 21.19,4.85 4.02,0 8.04,-1.57 12.05,-2.92 1.25,-3.5 2.4,-7.11 3.45,-10.84 -5.17,1.39 -10.33,3.99 -15.5,3.99 -7.06,0 -14.13,-4.85 -21.19,-4.85 -7.06,0 -14.13,4.85 -21.19,4.85 -4.91,0 -9.82,-2.34 -14.74,-3.77zm8.13 22.21c1.7,3.77 3.5,7.39 5.38,10.85 0.41,0.03 0.82,0.05 1.23,0.05 7.06,0 14.13,-4.85 21.19,-4.85 7.06,0 14.13,4.85 21.19,4.85 0.73,0 1.46,-0.05 2.18,-0.14 1.89,-3.52 3.69,-7.2 5.38,-11.05 -2.52,0.79 -5.04,1.41 -7.57,1.41 -7.06,0 -14.13,-4.85 -21.19,-4.85 -7.06,0 -14.13,4.85 -21.19,4.85 -2.2,0 -4.41,-0.47 -6.61,-1.12zm10.86 20.17c1.79,2.84 3.63,5.55 5.5,8.15 3.82,-1.3 7.63,-2.71 11.45,-2.71 4.09,0 8.17,1.62 12.26,2.99 1.89,-2.63 3.74,-5.38 5.54,-8.25 -5.93,-1.09 -11.87,-4.52 -17.8,-4.52 -5.65,0 -11.3,3.1 -16.95,4.34zm11.52 16c1.98,2.43 3.97,4.75 5.96,6.94l0.01 0c1.92,-2.12 3.85,-4.35 5.75,-6.7 -2.1,-0.6 -4.19,-1.03 -6.29,-1.03 -1.81,0 -3.62,0.32 -5.43,0.79zm-120.46 -78.96c0.58,3.71 1.27,7.33 2.05,10.84l-0.18 -0.83c6.02,1.04 12.05,4.56 18.07,4.56 7.06,0 14.13,-4.85 21.19,-4.85 7.06,0 14.13,4.85 21.19,4.85 5.79,0 11.58,-3.26 17.38,-4.43 0.72,-3.27 1.36,-6.63 1.91,-10.08 -6.43,0.72 -12.86,4.74 -19.28,4.74 -7.06,0 -14.13,-4.85 -21.19,-4.85 -7.07,0 -14.13,4.85 -21.19,4.85 -6.64,0 -13.29,-4.29 -19.93,-4.8zm4.43 20.36c1.05,3.74 2.2,7.35 3.45,10.84 4.02,1.35 8.03,2.92 12.05,2.92 7.06,0 14.13,-4.85 21.19,-4.85 7.06,0 14.13,4.85 21.19,4.85 3.73,0 7.46,-1.35 11.19,-2.63 1.28,-3.52 2.46,-7.16 3.55,-10.92 -4.91,1.43 -9.82,3.77 -14.73,3.77 -7.06,0 -14.13,-4.85 -21.19,-4.85 -7.07,0 -14.13,4.85 -21.19,4.85 -5.17,0 -10.33,-2.59 -15.5,-3.99zm79.07 -83.17c10.71,0 19.4,8.29 19.4,18.51 0,10.23 -8.69,18.51 -19.4,18.51 -10.72,0 -19.4,-8.29 -19.4,-18.51 0,-10.23 8.69,-18.51 19.4,-18.51zm54.98 0c10.71,0 19.4,8.29 19.4,18.51 0,10.23 -8.69,18.51 -19.4,18.51 -10.72,0 -19.4,-8.29 -19.4,-18.51 0,-10.23 8.69,-18.51 19.4,-18.51zm-109.98 0c10.72,0 19.4,8.29 19.4,18.51 0,10.23 -8.69,18.51 -19.4,18.51 -10.72,0 -19.4,-8.29 -19.4,-18.51 0,-10.23 8.69,-18.51 19.4,-18.51zm55.58 126.25c10.74,0 19.44,8.31 19.44,18.55 0,10.25 -8.7,18.55 -19.44,18.55 -10.74,0 -19.44,-8.31 -19.44,-18.55 0,-10.25 8.7,-18.55 19.44,-18.55z"/>
  <g>
   <path class="fil2" d="M86.29 192.57l0.72 -1.56 -0.55 -0.06 0.15 -0.09 0.9 -0.44 1.43 -0.74 1.93 -1.04 2.37 -1.36 2.78 -1.69 3.14 -2.02 3.45 -2.36 3.73 -2.71 3.96 -3.07 4.15 -3.43 4.29 -3.8 4.39 -4.19 4.45 -4.58 4.46 -4.97 4.43 -5.38 4.36 -5.79 4.24 -6.22 4.08 -6.65 3.88 -7.09 3.64 -7.53 3.35 -7.99 3.02 -8.45 2.64 -8.92 2.23 -9.41 1.77 -9.89 1.26 -10.39 0.71 -10.9 0.12 -11.42 -0.51 -11.94 -1.19 -12.47 -1.91 -13.02 1.7 -0.29 1.92 13.1 1.2 12.56 0.52 12.03 -0.12 11.51 -0.72 10.99 -1.27 10.49 -1.78 9.99 -2.25 9.5 -2.67 9.02 -3.05 8.54 -3.38 8.07 -3.68 7.61 -3.93 7.16 -4.13 6.72 -4.29 6.28 -4.41 5.86 -4.48 5.44 -4.51 5.03 -4.49 4.62 -4.44 4.23 -4.34 3.85 -4.19 3.47 -4 3.1 -3.77 2.74 -3.49 2.39 -3.18 2.04 -2.81 1.71 -2.41 1.38 -1.96 1.06 -1.47 0.75 -0.93 0.45 -0.52 0.21 -0.55 -0.06zm0.55 0.06l-0.28 0.06 -0.27 -0.12 0.55 0.06zm-82.37 -192.63l0 1.72 0.85 -0.72 -1.9 13 -1.18 12.46 -0.5 11.93 0.13 11.41 0.72 10.9 1.27 10.39 1.77 9.89 2.23 9.41 2.65 8.92 3.02 8.45 3.35 7.99 3.64 7.53 3.88 7.09 4.09 6.65 4.24 6.22 4.36 5.8 4.43 5.39 4.46 4.98 4.44 4.58 4.38 4.19 4.28 3.81 4.13 3.44 3.95 3.07 3.71 2.71 3.44 2.36 3.12 2.02 2.76 1.69 2.35 1.36 1.9 1.04 1.41 0.73 0.87 0.43 0.28 0.14 -0.72 1.56 -0.32 -0.15 -0.9 -0.45 -1.44 -0.75 -1.93 -1.06 -2.39 -1.38 -2.79 -1.71 -3.16 -2.05 -3.48 -2.39 -3.76 -2.74 -3.99 -3.1 -4.18 -3.47 -4.33 -3.85 -4.43 -4.23 -4.49 -4.63 -4.5 -5.03 -4.48 -5.44 -4.4 -5.86 -4.29 -6.29 -4.13 -6.72 -3.93 -7.16 -3.68 -7.62 -3.39 -8.07 -3.06 -8.54 -2.68 -9.02 -2.26 -9.5 -1.79 -9.99 -1.28 -10.48 -0.73 -10.99 -0.13 -11.5 0.51 -12.02 1.19 -12.55 1.92 -13.09 0.85 -0.72zm-0.85 0.72l0.12 -0.72 0.73 0 -0.85 0.72zm165.4 1.01l-164.55 -0.01 0 -1.72 164.55 0.01 0.85 0.71 -0.85 1.01zm0 -1.72l0.73 0 0.12 0.71 -0.85 -0.71z"/>
  </g>
 </g>
</svg>
